# xmcd
#
# Track frame offsets:
#  183
#  12740
#  23575
#  48748
#  59803
#  72518
#  88568
#  99098
#  111378
#  124498
#  136568
#  146813
#  160075
#  183698
#
# Disc length: 2605 seconds
#
# Revision: 6
# Processed by: cddbd v1.5.1PL2 Copyright (c) Steve Scherf et al.
# Submitted via: Collectorz.com_Music_Collector 6.11
#
DISCID=cf0a2b0e
DTITLE=Various Artist - Essential Blues
DYEAR=1900
DGENRE=Blues
TTITLE0=Jimmy Reed - Shame, Shame, Shame
TTITLE1=Elmore James - Coming Home
TTITLE2=Howlin' Wolf - Little Red Rooster
TTITLE3=Memphis Slim - Lonesome
TTITLE4=Muddy Waters - 40 Days and 40 Nights
TTITLE5=B.B. King - It's My Own Fault Baby
TTITLE6=Eric Clapton - Got To Hurry
TTITLE7=Howlin' Wolf - Ain't Superstitious
TTITLE8=Elmore James - Dust My Broom
TTITLE9=Jimmy Reed - My Baby's So Sweet
TTITLE10=Eric Clapton - I Wish You Would
TTITLE11=Muddy Waters - Rollin' And Tumblin'
TTITLE12=B.B. King - You've Done Lost Your Good Thing Now
TTITLE13=Memphis Slim - Let The Good Times Roll Creole
EXTD=
EXTT0=
EXTT1=
EXTT2=
EXTT3=
EXTT4=
EXTT5=
EXTT6=
EXTT7=
EXTT8=
EXTT9=
EXTT10=
EXTT11=
EXTT12=
EXTT13=
PLAYORDER=
